<svg id="Camada_1" data-name="Camada 1" xmlns="http://www.w3.org/2000/svg" viewBox="0 0 241.53 222.13"><defs><style>.cls-1{fill:#dbab0d;}.cls-2{fill:#ff4655;}</style></defs><title>amarelo+vermelho</title><path class="cls-1" d="M582.47,298a3.24,3.24,0,0,1,3.26-3.26H729.21a3.24,3.24,0,0,1,3.26,3.26V338a10.41,10.41,0,0,1-2.44,6.79L687.09,401l61.42,80.17a2.44,2.44,0,0,1,.13,2.58,2.2,2.2,0,0,1-2,1.22H712.09a11,11,0,0,1-9-4.35l-59.52-77.44q-1.9-2.18,0-4.08l53.54-69.84h-79.9V481.7c0,2.18-1.18,3.26-3.53,3.26h-28a3.24,3.24,0,0,1-3.26-3.26Z" transform="translate(-582.47 -294.74)"/><polygon class="cls-2" points="110.16 106.04 180.37 196.08 118.08 196.08 118.65 222.13 241.53 222.13 151.49 106.61 231.9 1.85 192.83 0.15 110.16 106.04"/></svg>